<svg xmlns="http://www.w3.org/2000/svg" data-name="Layer 1" viewBox="0 0 343.9 58.11">
                                <rect x="48.74" y="48.74" width="6.05" height="6.05" rx="1.65" ry="1.65" fill="#fff"/>
                                <path d="M48.95 43.16a2 2 0 0 0-2-2h-3.79a2 2 0 0 0-2 2v3.81a2 2 0 0 0 2 2h3.79a2 2 0 0 0 2-2v-3.81z" fill="#fff"/>
                                <rect x="54.11" y="38.8" width="4" height="4" rx="1.26" ry="1.26" fill="#fff"/>
                                <rect x="48.66" y="33.36" width="4.99" height="4.98" rx="1.46" ry="1.46" fill="#fff"/>
                                <rect x="42.21" y="26.91" width="6.17" height="6.17" rx="2" ry="2" fill="#fff"/>
                                <rect x="34.28" y="18.98" width="7.65" height="7.65" rx="2" ry="2" fill="#fff"/>
                                <rect x="38.8" y="54.1" width="4" height="4" rx="1.26" ry="1.26" fill="#fff"/>
                                <rect x="33.35" y="48.66" width="4.99" height="4.98" rx="1.46" ry="1.46" fill="#fff"/>
                                <rect x="26.9" y="42.21" width="6.17" height="6.17" rx="2" ry="2" fill="#fff"/>
                                <rect x="18.97" y="34.28" width="7.65" height="7.65" rx="2" ry="2" fill="#fff"/>
                                <rect x="31.38" y="31.39" width="9.92" height="9.91" rx="2" ry="2" fill="#fff"/>
                                <rect x="49.27" y="5.55" width="6.05" height="6.05" rx="2" ry="2" fill="#fff"/>
                                <rect x="36.94" y="4.25" width="8.67" height="8.66" rx="2" ry="2" fill="#fff"/>
                                <rect x="20.8" y="2.33" width="12.48" height="12.48" rx="2" ry="2" fill="#fff"/>
                                <rect x="18.97" y="18.98" width="12.54" height="12.54" rx="2" ry="2" fill="#fff"/>
                                <rect width="17.15" height="17.15" rx="2" ry="2" fill="#fff"/>
                                <rect x="2.33" y="20.8" width="12.49" height="12.48" rx="2" ry="2" fill="#fff"/>
                                <rect x="4.24" y="36.94" width="8.67" height="8.67" rx="2" ry="2" fill="#fff"/>
                                <rect x="5.54" y="49.27" width="6.06" height="6.05" rx="2" ry="2" fill="#fff"/>
                                <path d="M153.09 29.55a3.35 3.35 0 0 1 1-2.46 3.27 3.27 0 0 1 2.4-1 3.36 3.36 0 0 1 2.43 1 3.28 3.28 0 0 1 1 2.46V54.4a3.42 3.42 0 0 1-5.83 2.46 3.27 3.27 0 0 1-1-2.46V29.55zm0-10.43a3.38 3.38 0 0 1 1-2.47 3.27 3.27 0 0 1 2.4-1 3.36 3.36 0 0 1 2.43 1 3.3 3.3 0 0 1 1 2.47v1.73a3.27 3.27 0 0 1-1 2.4 3.34 3.34 0 0 1-2.46 1 3.29 3.29 0 0 1-2.37-1 3.23 3.23 0 0 1-1-2.4v-1.73zm10.23 18.56a11.46 11.46 0 0 1 .93-4.58 12.09 12.09 0 0 1 6.34-6.34 12 12 0 0 1 9.25 0 12 12 0 0 1 6.37 6.34 11.47 11.47 0 0 1 .93 4.58V54.4a3.27 3.27 0 0 1-1 2.46 3.36 3.36 0 0 1-2.43 1 3.26 3.26 0 0 1-2.4-1 3.32 3.32 0 0 1-1-2.46V37.68a4.47 4.47 0 0 0-.42-1.92 5.31 5.31 0 0 0-1.09-1.57 4.8 4.8 0 0 0-1.6-1.05 5.09 5.09 0 0 0-2-.38 5 5 0 0 0-3.59 1.44 4.73 4.73 0 0 0-1.47 3.5v16.7a3.45 3.45 0 0 1-3.4 3.46 3.39 3.39 0 0 1-3.46-3.46V37.68zm27.86-17.93a3.32 3.32 0 0 1 1-2.46 3.27 3.27 0 0 1 2.4-1 3.37 3.37 0 0 1 2.43 1 3.27 3.27 0 0 1 1 2.46v6.34h10.34a3.425 3.425 0 1 1 0 6.85h-10.31v13.33a4.45 4.45 0 0 0 .42 1.92 5.31 5.31 0 0 0 1.09 1.57 4.8 4.8 0 0 0 1.6 1.05 5 5 0 0 0 2 .38 5.09 5.09 0 0 0 2.75-.8 4.87 4.87 0 0 0 1.92-2.27 3.64 3.64 0 0 1 1.13-1.51 3.17 3.17 0 0 1 1.92-.6 3.29 3.29 0 0 1 2.47 1 3.41 3.41 0 0 1 1 2.44 3.52 3.52 0 0 1-.32 1.28 11.56 11.56 0 0 1-3.07 4.4 13.37 13.37 0 0 1-3.59 2.18 9.66 9.66 0 0 1-2.94.74l-1.28.06a11.58 11.58 0 0 1-4.61-.93 12 12 0 0 1-6.37-6.34 11.33 11.33 0 0 1-.93-4.57V19.75zm25.3 17.93a11.34 11.34 0 0 1 .93-4.58 12.09 12.09 0 0 1 6.34-6.34 12 12 0 0 1 9.25 0 11.94 11.94 0 0 1 3.81 2.56 12.14 12.14 0 0 1 2.56 3.78 11.46 11.46 0 0 1 .92 4.58v4.29a3.35 3.35 0 0 1-1 2.47 3.24 3.24 0 0 1-2.4 1H223.4v.83a4.73 4.73 0 0 0 1.47 3.5 4.87 4.87 0 0 0 3.53 1.44 9.26 9.26 0 0 0 1.76-.19 3.31 3.31 0 0 0 1.89-1.28 8.36 8.36 0 0 1 1-.92 4.31 4.31 0 0 1 1.25-.74 3.56 3.56 0 0 1 1.44-.23 2.76 2.76 0 0 1 1.54.61 3.42 3.42 0 0 1 1.38 2 3.3 3.3 0 0 1-.67 2.79 15.05 15.05 0 0 1-3.65 3.35 10.4 10.4 0 0 1-5.89 1.51 11.58 11.58 0 0 1-4.61-.93 11.9 11.9 0 0 1-3.89-2.56 12 12 0 0 1-2.56-3.78 11.34 11.34 0 0 1-.93-4.58v-8.58zm6.92.81h10.05v-.81a4.47 4.47 0 0 0-.42-1.92 5.53 5.53 0 0 0-1.08-1.57 4.84 4.84 0 0 0-1.6-1.06 5.11 5.11 0 0 0-2-.38 4.83 4.83 0 0 0-3.56 1.44 4.75 4.75 0 0 0-1.44 3.49v.81zm20.79-8.95a3.37 3.37 0 0 1 1-2.46 3.27 3.27 0 0 1 2.4-1 3.37 3.37 0 0 1 2.68 1.28 12.22 12.22 0 0 1 6-1.53l1.22.13a13.52 13.52 0 0 1 2.66.57 8.15 8.15 0 0 1 2.66 1.41 3.08 3.08 0 0 1 1.24 2.55 3.3 3.3 0 0 1-1 2.49 3.4 3.4 0 0 1-2.46 1 3.62 3.62 0 0 1-2.05-.64 4.19 4.19 0 0 0-1.15-.44 5.69 5.69 0 0 0-1.28-.13 4.84 4.84 0 0 0-3.52 1.38 5 5 0 0 0-1.54 3.34V54.4a3.39 3.39 0 0 1-3.46 3.46 3.45 3.45 0 0 1-3.4-3.46V29.54zm21.46 8.14a11.34 11.34 0 0 1 .93-4.58 12.08 12.08 0 0 1 6.37-6.34 11.95 11.95 0 0 1 9.25 0 11.94 11.94 0 0 1 3.75 2.56 12.14 12.14 0 0 1 2.56 3.78 11.46 11.46 0 0 1 .92 4.58V54.4a3.29 3.29 0 0 1-1 2.46 3.37 3.37 0 0 1-2.44 1 3.24 3.24 0 0 1-2.4-1 3.32 3.32 0 0 1-1-2.46V37.68a4.46 4.46 0 0 0-.42-1.92 5.57 5.57 0 0 0-1.09-1.57 4.87 4.87 0 0 0-1.6-1.05 5.09 5.09 0 0 0-2-.38 4.94 4.94 0 0 0-3.53 1.42 4.71 4.71 0 0 0-1.47 3.5V54.4a3.45 3.45 0 0 1-3.4 3.46 3.39 3.39 0 0 1-3.46-3.46V37.68zm27.55 0a11.46 11.46 0 0 1 .93-4.58 12.08 12.08 0 0 1 6.34-6.34 11.95 11.95 0 0 1 9.25 0 11.94 11.94 0 0 1 3.81 2.56 12.14 12.14 0 0 1 2.56 3.78 11.46 11.46 0 0 1 .92 4.58v4.29a3.35 3.35 0 0 1-1 2.47 3.24 3.24 0 0 1-2.4 1h-13.5v.83a4.73 4.73 0 0 0 1.47 3.5 4.87 4.87 0 0 0 3.53 1.44 9.25 9.25 0 0 0 1.76-.19 3.31 3.31 0 0 0 1.89-1.28 8 8 0 0 1 1-.92 4.28 4.28 0 0 1 1.25-.74 3.6 3.6 0 0 1 1.44-.23 2.76 2.76 0 0 1 1.5.64 3.43 3.43 0 0 1 1.38 2 3.3 3.3 0 0 1-.67 2.79 15.05 15.05 0 0 1-3.65 3.35 10.4 10.4 0 0 1-5.89 1.51 11.58 11.58 0 0 1-4.61-.93 12 12 0 0 1-6.37-6.34 11.46 11.46 0 0 1-.93-4.58v-8.61zm6.91.81h10.06v-.81a4.46 4.46 0 0 0-.42-1.92 5.26 5.26 0 0 0-1.09-1.57 4.71 4.71 0 0 0-1.6-1.06 5.09 5.09 0 0 0-2-.38 4.83 4.83 0 0 0-3.56 1.44 4.75 4.75 0 0 0-1.44 3.49v.81zm20.61-18.74a3.32 3.32 0 0 1 1-2.46 3.24 3.24 0 0 1 2.4-1 3.37 3.37 0 0 1 2.44 1 3.29 3.29 0 0 1 1 2.46v6.34h10.32a3.39 3.39 0 0 1 3.46 3.46 3.44 3.44 0 0 1-3.46 3.39h-10.31v13.33a4.55 4.55 0 0 0 .42 1.92 5.56 5.56 0 0 0 1.09 1.57 4.94 4.94 0 0 0 1.6 1.05 5 5 0 0 0 2 .38 5.11 5.11 0 0 0 2.75-.8 4.91 4.91 0 0 0 1.92-2.27 3.61 3.61 0 0 1 1.21-1.51 3.18 3.18 0 0 1 1.92-.6 3.27 3.27 0 0 1 2.46 1 3.38 3.38 0 0 1 1.01 2.48 3.49 3.49 0 0 1-.31 1.28 11.56 11.56 0 0 1-3.14 4.38 13.46 13.46 0 0 1-3.59 2.18 9.71 9.71 0 0 1-2.94.74l-1.28.06a11.58 11.58 0 0 1-4.61-.93 11.93 11.93 0 0 1-3.81-2.56 12.15 12.15 0 0 1-2.56-3.78 11.45 11.45 0 0 1-.92-4.57V19.75zM72.28 37.68a11.34 11.34 0 0 1 .93-4.58 12.11 12.11 0 0 1 6.33-6.34 12 12 0 0 1 9.25 0 11.91 11.91 0 0 1 3.81 2.56 12 12 0 0 1 2.56 3.78 11.35 11.35 0 0 1 .93 4.58V54.4a3.27 3.27 0 0 1-1 2.46 3.35 3.35 0 0 1-2.43 1 3.27 3.27 0 0 1-2.4-1 3.35 3.35 0 0 1-1-2.46V37.68a4.56 4.56 0 0 0-.41-1.92 5.57 5.57 0 0 0-1.09-1.57 4.94 4.94 0 0 0-1.6-1.05 5.15 5.15 0 0 0-2-.38 4.93 4.93 0 0 0-3.58 1.44 4.71 4.71 0 0 0-1.48 3.5v16.7a3.44 3.44 0 0 1-3.39 3.46 3.39 3.39 0 0 1-3.46-3.46V37.68zm27.55 0a11.34 11.34 0 0 1 .93-4.58 12.11 12.11 0 0 1 6.33-6.34 12 12 0 0 1 9.25 0 11.91 11.91 0 0 1 3.81 2.56 12 12 0 0 1 2.56 3.78 11.35 11.35 0 0 1 .93 4.58v4.29a3.35 3.35 0 0 1-1 2.47 3.26 3.26 0 0 1-2.4 1h-13.49v.83a4.71 4.71 0 0 0 1.47 3.5 4.86 4.86 0 0 0 3.52 1.44 9.31 9.31 0 0 0 1.77-.19 3.35 3.35 0 0 0 1.89-1.28 7.83 7.83 0 0 1 1-.92 4.31 4.31 0 0 1 1.25-.74 3.56 3.56 0 0 1 1.44-.23 2.76 2.76 0 0 1 1.54.61 3.42 3.42 0 0 1 1.32 2.03 3.33 3.33 0 0 1-.67 2.79 15.1 15.1 0 0 1-3.66 3.35 10.37 10.37 0 0 1-5.89 1.51 11.54 11.54 0 0 1-4.61-.93 11.94 11.94 0 0 1-3.81-2.56 12.26 12.26 0 0 1-2.56-3.78 11.45 11.45 0 0 1-.92-4.58v-8.61zm6.92.81h10v-.81a4.45 4.45 0 0 0-.41-1.92 5.54 5.54 0 0 0-1.09-1.57 4.85 4.85 0 0 0-1.6-1.06 5.15 5.15 0 0 0-2-.38 4.82 4.82 0 0 0-3.55 1.44 4.75 4.75 0 0 0-1.44 3.49v.81zm20.6-18.74a3.35 3.35 0 0 1 1-2.46 3.27 3.27 0 0 1 2.4-1 3.35 3.35 0 0 1 2.43 1 3.27 3.27 0 0 1 1 2.46v6.34h10.31a3.425 3.425 0 1 1 0 6.85H134.2v13.33a4.46 4.46 0 0 0 .42 1.92 5.31 5.31 0 0 0 1.09 1.57 4.79 4.79 0 0 0 1.6 1.05 5 5 0 0 0 2 .38 5.07 5.07 0 0 0 2.75-.8 4.87 4.87 0 0 0 1.89-2.27 3.69 3.69 0 0 1 1.22-1.51 3.18 3.18 0 0 1 1.92-.6 3.29 3.29 0 0 1 2.46 1 3.41 3.41 0 0 1 1 2.44 3.52 3.52 0 0 1-.32 1.28 11.62 11.62 0 0 1-3.14 4.38 13.57 13.57 0 0 1-3.59 2.18 9.74 9.74 0 0 1-3 .74l-1.28.06a11.52 11.52 0 0 1-4.61-.93 11.86 11.86 0 0 1-3.81-2.56 12 12 0 0 1-2.56-3.78 11.33 11.33 0 0 1-.93-4.57v-26.5z" fill="#fff"/></svg>
